<svg width="553" height="371" viewBox="0 0 553 371" fill="none" xmlns="http://www.w3.org/2000/svg">
<mask id="mask0_58_1192" style="mask-type:alpha" maskUnits="userSpaceOnUse" x="0" y="30" width="553" height="341">
<rect width="551.181" height="339.116" rx="30" transform="matrix(1 0 0 -1 0.951172 370.062)" fill="#D9D9D9"/>
</mask>
<g mask="url(#mask0_58_1192)">
<path d="M199.79 373.946L184.66 314.276H200.215L208.8 357.711L219.425 314.276H235.405L245.605 357.711L254.275 314.276H269.915L254.36 373.946H236.765L227.245 334.676L217.385 373.946H199.79ZM312.054 314.276V325.921H290.039V337.991H309.504V349.211H290.039V362.301H312.054V373.946H275.504V314.276H312.054ZM352.686 355.756C352.686 351.506 349.711 349.041 344.866 349.041H334.326V362.216H345.036C349.881 362.216 352.686 360.006 352.686 355.756ZM351.241 332.211C351.241 328.131 348.606 325.921 343.846 325.921H334.326V338.416H343.846C348.606 338.416 351.241 336.291 351.241 332.211ZM367.391 357.711C367.391 367.571 360.166 373.946 347.586 373.946H319.791V314.276H346.651C358.806 314.276 366.031 320.311 366.031 329.746C366.031 336.971 361.696 341.646 355.916 343.346C362.886 344.791 367.391 350.911 367.391 357.711Z" fill="#F3F9F9" fill-opacity="0.3"/>
</g>
<rect x="0.5" y="-0.5" width="550.181" height="368.116" rx="29.5" transform="matrix(1 0 0 -1 0.951172 369.062)" stroke="#F3F9F9"/>
<rect x="79.332" y="88.041" width="170" height="58" rx="29" fill="#F3F9F9"/>
<rect x="79.332" y="88.041" width="170" height="58" rx="29" stroke="#F3F9F9"/>
<path d="M126.734 126.521C126.994 127.181 127.294 127.661 127.634 127.961C127.974 128.261 128.304 128.421 128.624 128.441V129.041C127.424 128.981 125.904 128.951 124.064 128.951C122.024 128.951 120.504 128.981 119.504 129.041V128.441C120.264 128.401 120.804 128.311 121.124 128.171C121.444 128.011 121.604 127.741 121.604 127.361C121.604 127.001 121.484 126.521 121.244 125.921L119.444 121.001H112.904L112.124 123.071C111.564 124.511 111.284 125.621 111.284 126.401C111.284 127.141 111.504 127.661 111.944 127.961C112.404 128.241 113.074 128.401 113.954 128.441V129.041C112.594 128.981 111.354 128.951 110.234 128.951C109.314 128.951 108.554 128.981 107.954 129.041V128.441C108.934 128.261 109.794 127.211 110.534 125.291L117.374 107.741C117.594 107.761 117.944 107.771 118.424 107.771C118.904 107.771 119.244 107.761 119.444 107.741L126.734 126.521ZM119.234 120.401L116.264 112.301L113.144 120.401H119.234ZM140.294 113.111C141.814 113.111 142.914 113.501 143.594 114.281C143.934 114.661 144.174 115.151 144.314 115.751C144.454 116.351 144.524 117.161 144.524 118.181V126.251C144.524 127.071 144.664 127.641 144.944 127.961C145.244 128.261 145.744 128.411 146.444 128.411V129.041C144.444 128.961 143.124 128.921 142.484 128.921C141.884 128.921 140.584 128.961 138.584 129.041V128.411C139.184 128.411 139.604 128.261 139.844 127.961C140.084 127.641 140.204 127.071 140.204 126.251V116.921C140.204 116.101 140.064 115.481 139.784 115.061C139.524 114.641 139.044 114.431 138.344 114.431C137.524 114.431 136.824 114.771 136.244 115.451C135.664 116.111 135.374 116.931 135.374 117.911V126.251C135.374 127.071 135.494 127.641 135.734 127.961C135.974 128.261 136.394 128.411 136.994 128.411V129.041C135.154 128.961 133.914 128.921 133.274 128.921C132.674 128.921 131.294 128.961 129.134 129.041V128.411C129.854 128.411 130.354 128.261 130.634 127.961C130.914 127.641 131.054 127.071 131.054 126.251V116.801C131.054 115.881 130.914 115.211 130.634 114.791C130.354 114.371 129.854 114.161 129.134 114.161V113.531C129.774 113.591 130.394 113.621 130.994 113.621C132.774 113.621 134.234 113.481 135.374 113.201V115.901C136.274 114.041 137.914 113.111 140.294 113.111ZM161.577 116.411C161.177 116.411 160.837 116.281 160.557 116.021C160.277 115.741 160.137 115.351 160.137 114.851C160.137 114.371 160.257 113.881 160.497 113.381C160.017 113.581 159.617 113.811 159.297 114.071C158.997 114.311 158.737 114.621 158.517 115.001C159.137 115.741 159.447 116.701 159.447 117.881C159.447 119.461 158.897 120.651 157.797 121.451C156.717 122.251 155.277 122.651 153.477 122.651H152.937C152.117 123.131 151.707 123.661 151.707 124.241C151.707 124.881 152.107 125.201 152.907 125.201H156.177C157.937 125.201 159.337 125.531 160.377 126.191C161.437 126.831 161.967 127.821 161.967 129.161C161.967 130.181 161.637 131.101 160.977 131.921C160.337 132.761 159.357 133.431 158.037 133.931C156.717 134.431 155.097 134.681 153.177 134.681C151.237 134.681 149.677 134.431 148.497 133.931C147.337 133.451 146.757 132.751 146.757 131.831C146.757 131.211 147.037 130.651 147.597 130.151C148.157 129.671 148.987 129.291 150.087 129.011L150.357 129.491C149.637 130.091 149.277 130.781 149.277 131.561C149.277 132.401 149.657 133.041 150.417 133.481C151.177 133.941 152.227 134.171 153.567 134.171C154.967 134.171 156.097 133.891 156.957 133.331C157.837 132.771 158.277 131.981 158.277 130.961C158.277 130.301 158.027 129.781 157.527 129.401C157.047 129.021 156.197 128.831 154.977 128.831H153.117C151.837 128.831 150.837 128.621 150.117 128.201C149.397 127.761 149.037 127.101 149.037 126.221C149.037 125.481 149.297 124.821 149.817 124.241C150.337 123.661 151.127 123.101 152.187 122.561C150.747 122.381 149.607 121.901 148.767 121.121C147.927 120.341 147.507 119.261 147.507 117.881C147.507 116.301 148.047 115.111 149.127 114.311C150.227 113.511 151.677 113.111 153.477 113.111C155.477 113.111 157.007 113.581 158.067 114.521C158.447 113.981 158.917 113.551 159.477 113.231C160.037 112.911 160.607 112.751 161.187 112.751C161.787 112.751 162.257 112.931 162.597 113.291C162.957 113.631 163.137 114.081 163.137 114.641C163.137 115.201 162.977 115.641 162.657 115.961C162.357 116.261 161.997 116.411 161.577 116.411ZM153.477 122.111C154.037 122.111 154.457 121.791 154.737 121.151C155.037 120.511 155.187 119.421 155.187 117.881C155.187 116.341 155.037 115.251 154.737 114.611C154.457 113.971 154.037 113.651 153.477 113.651C152.917 113.651 152.487 113.971 152.187 114.611C151.907 115.251 151.767 116.341 151.767 117.881C151.767 119.421 151.907 120.511 152.187 121.151C152.487 121.791 152.917 122.111 153.477 122.111ZM178.879 125.771C178.879 126.691 179.019 127.361 179.299 127.781C179.599 128.201 180.099 128.411 180.799 128.411V129.041C180.179 128.981 179.559 128.951 178.939 128.951C177.199 128.951 175.739 129.091 174.559 129.371V126.671C173.639 128.531 172.029 129.461 169.729 129.461C168.229 129.461 167.139 129.071 166.459 128.291C166.139 127.911 165.899 127.421 165.739 126.821C165.599 126.201 165.529 125.391 165.529 124.391V116.801C165.529 115.881 165.379 115.211 165.079 114.791C164.799 114.371 164.309 114.161 163.609 114.161V113.531C164.229 113.591 164.849 113.621 165.469 113.621C167.209 113.621 168.669 113.481 169.849 113.201V125.621C169.849 126.461 169.969 127.091 170.209 127.511C170.469 127.931 170.949 128.141 171.649 128.141C172.449 128.141 173.129 127.811 173.689 127.151C174.269 126.471 174.559 125.641 174.559 124.661V116.801C174.559 115.881 174.409 115.211 174.109 114.791C173.829 114.371 173.339 114.161 172.639 114.161V113.531C173.279 113.591 173.899 113.621 174.499 113.621C176.239 113.621 177.699 113.481 178.879 113.201V125.771ZM188.252 126.251C188.252 127.071 188.392 127.641 188.672 127.961C188.952 128.261 189.452 128.411 190.172 128.411V129.041C188.092 128.961 186.752 128.921 186.152 128.921C185.472 128.921 184.092 128.961 182.012 129.041V128.411C182.712 128.411 183.202 128.261 183.482 127.961C183.782 127.641 183.932 127.071 183.932 126.251V109.151C183.932 108.231 183.782 107.561 183.482 107.141C183.202 106.721 182.712 106.511 182.012 106.511V105.881C182.652 105.941 183.272 105.971 183.872 105.971C185.612 105.971 187.072 105.831 188.252 105.551V126.251ZM195.409 129.251C194.129 129.251 193.169 128.921 192.529 128.261C191.909 127.601 191.599 126.731 191.599 125.651C191.599 124.751 191.829 124.011 192.289 123.431C192.769 122.831 193.339 122.371 193.999 122.051C194.679 121.731 195.539 121.391 196.579 121.031C197.679 120.651 198.479 120.311 198.979 120.011C199.499 119.691 199.759 119.261 199.759 118.721V116.381C199.759 115.541 199.559 114.891 199.159 114.431C198.779 113.951 198.179 113.711 197.359 113.711C196.399 113.711 195.669 113.951 195.169 114.431C195.729 114.631 196.159 114.931 196.459 115.331C196.779 115.731 196.939 116.201 196.939 116.741C196.939 117.421 196.709 117.961 196.249 118.361C195.789 118.761 195.229 118.961 194.569 118.961C193.869 118.961 193.329 118.741 192.949 118.301C192.569 117.861 192.379 117.311 192.379 116.651C192.379 116.091 192.509 115.621 192.769 115.241C193.049 114.841 193.469 114.471 194.029 114.131C194.569 113.811 195.229 113.561 196.009 113.381C196.809 113.201 197.679 113.111 198.619 113.111C199.599 113.111 200.449 113.211 201.169 113.411C201.889 113.611 202.489 113.951 202.969 114.431C203.409 114.871 203.699 115.411 203.839 116.051C203.999 116.691 204.079 117.561 204.079 118.661V126.821C204.079 127.301 204.119 127.641 204.199 127.841C204.299 128.041 204.479 128.141 204.739 128.141C205.039 128.141 205.399 127.971 205.819 127.631L206.119 128.141C205.219 128.881 204.119 129.251 202.819 129.251C201.719 129.251 200.949 129.031 200.509 128.591C200.069 128.151 199.839 127.561 199.819 126.821C198.819 128.441 197.349 129.251 195.409 129.251ZM197.719 127.331C198.499 127.331 199.179 126.921 199.759 126.101V119.951C199.519 120.351 199.009 120.791 198.229 121.271C197.449 121.771 196.859 122.271 196.459 122.771C196.059 123.271 195.859 123.991 195.859 124.931C195.859 125.751 196.029 126.361 196.369 126.761C196.709 127.141 197.159 127.331 197.719 127.331ZM217.296 113.111C218.196 113.111 218.876 113.381 219.336 113.921C219.796 114.461 220.026 115.111 220.026 115.871C220.026 116.611 219.806 117.221 219.366 117.701C218.946 118.161 218.386 118.391 217.686 118.391C217.006 118.391 216.466 118.221 216.066 117.881C215.666 117.521 215.466 117.051 215.466 116.471C215.466 115.511 215.906 114.731 216.786 114.131C216.706 114.111 216.586 114.101 216.426 114.101C216.226 114.101 216.066 114.121 215.946 114.161C215.186 114.281 214.536 114.741 213.996 115.541C213.476 116.341 213.216 117.161 213.216 118.001V125.951C213.216 126.871 213.436 127.511 213.876 127.871C214.336 128.231 215.056 128.411 216.036 128.411V129.041C215.756 129.041 215.526 129.031 215.346 129.011C213.306 128.951 211.946 128.921 211.266 128.921C210.726 128.921 209.496 128.951 207.576 129.011C207.416 129.031 207.216 129.041 206.976 129.041V128.411C207.696 128.411 208.196 128.261 208.476 127.961C208.756 127.641 208.896 127.071 208.896 126.251V116.801C208.896 115.881 208.756 115.211 208.476 114.791C208.196 114.371 207.696 114.161 206.976 114.161V113.531C207.616 113.591 208.236 113.621 208.836 113.621C210.616 113.621 212.076 113.481 213.216 113.201V115.991C213.596 115.131 214.146 114.441 214.866 113.921C215.586 113.381 216.396 113.111 217.296 113.111Z" fill="#83C5BE"/>
<rect x="284.299" y="93.041" width="140" height="53" rx="26.5" stroke="#F3F9F9"/>
<path d="M331.199 110.391C332.139 110.391 332.909 110.361 333.509 110.301V110.901C333.009 111.101 332.519 111.491 332.039 112.071C331.579 112.631 331.189 113.431 330.869 114.471L325.589 131.601C325.369 131.581 325.019 131.571 324.539 131.571C324.059 131.571 323.709 131.581 323.489 131.601L319.079 118.221L314.639 131.601C314.419 131.581 314.069 131.571 313.589 131.571C313.109 131.571 312.759 131.581 312.539 131.601L305.819 112.821C305.579 112.161 305.289 111.681 304.949 111.381C304.609 111.081 304.269 110.921 303.929 110.901V110.301C305.129 110.361 306.619 110.391 308.399 110.391C310.079 110.391 311.309 110.361 312.089 110.301V110.901C311.389 111.001 311.039 111.391 311.039 112.071C311.039 112.391 311.129 112.841 311.309 113.421L315.689 126.111L318.719 117.171L317.189 112.521C316.989 111.941 316.749 111.541 316.469 111.321C316.209 111.081 315.899 110.941 315.539 110.901V110.301C316.659 110.361 318.089 110.391 319.829 110.391C321.789 110.391 323.229 110.361 324.149 110.301V110.901C323.429 110.921 322.909 111.011 322.589 111.171C322.269 111.311 322.109 111.591 322.109 112.011C322.109 112.371 322.209 112.841 322.409 113.421L326.519 125.961L329.369 116.901C329.829 115.401 330.059 114.241 330.059 113.421C330.059 112.561 329.839 111.941 329.399 111.561C328.979 111.161 328.339 110.941 327.479 110.901V110.301C328.839 110.361 330.079 110.391 331.199 110.391ZM340.753 129.501C342.393 129.501 343.713 128.701 344.713 127.101L345.253 127.281C344.853 128.581 344.133 129.691 343.093 130.611C342.073 131.511 340.793 131.961 339.253 131.961C337.133 131.961 335.443 131.291 334.183 129.951C332.943 128.591 332.323 126.591 332.323 123.951C332.323 121.251 332.993 119.191 334.333 117.771C335.673 116.331 337.453 115.611 339.673 115.611C343.433 115.611 345.313 117.831 345.313 122.271H336.883C336.863 122.571 336.853 123.041 336.853 123.681C336.853 125.001 337.033 126.101 337.393 126.981C337.773 127.861 338.253 128.501 338.833 128.901C339.433 129.301 340.073 129.501 340.753 129.501ZM339.493 116.241C338.773 116.241 338.173 116.691 337.693 117.591C337.233 118.471 336.943 119.841 336.823 121.701H341.533C341.573 120.121 341.413 118.821 341.053 117.801C340.713 116.761 340.193 116.241 339.493 116.241ZM357.34 115.611C358.96 115.611 360.27 116.281 361.27 117.621C362.27 118.941 362.77 120.861 362.77 123.381C362.77 126.321 362.13 128.491 360.85 129.891C359.57 131.271 357.92 131.961 355.9 131.961C354.52 131.961 353.4 131.611 352.54 130.911C351.82 130.851 351.1 130.931 350.38 131.151C349.66 131.371 349.09 131.661 348.67 132.021L348.22 131.751C348.36 131.251 348.43 130.691 348.43 130.071V111.681C348.43 110.761 348.28 110.091 347.98 109.671C347.7 109.251 347.21 109.041 346.51 109.041V108.411C347.13 108.471 347.75 108.501 348.37 108.501C350.11 108.501 351.57 108.361 352.75 108.081V118.461C353.17 117.541 353.78 116.841 354.58 116.361C355.38 115.861 356.3 115.611 357.34 115.611ZM354.97 131.331C356.07 131.331 356.89 130.711 357.43 129.471C357.97 128.231 358.24 126.341 358.24 123.801C358.24 121.341 358.01 119.581 357.55 118.521C357.09 117.441 356.43 116.901 355.57 116.901C354.93 116.901 354.34 117.141 353.8 117.621C353.28 118.081 352.93 118.711 352.75 119.511V130.521C353.41 131.061 354.15 131.331 354.97 131.331ZM376.058 109.881C377.298 109.881 378.338 110.051 379.178 110.391C380.038 110.731 380.878 111.211 381.698 111.831C381.938 112.011 382.138 112.101 382.298 112.101C382.498 112.101 382.658 111.961 382.778 111.681C382.898 111.381 382.988 110.921 383.048 110.301H383.738C383.658 111.661 383.618 114.081 383.618 117.561H382.928C382.768 116.201 382.528 115.101 382.208 114.261C381.908 113.421 381.398 112.711 380.678 112.131C380.198 111.671 379.608 111.311 378.908 111.051C378.208 110.791 377.488 110.661 376.748 110.661C375.348 110.661 374.178 111.141 373.238 112.101C372.318 113.041 371.638 114.291 371.198 115.851C370.758 117.411 370.538 119.121 370.538 120.981C370.538 127.901 372.458 131.361 376.298 131.361C377.178 131.361 377.888 131.161 378.428 130.761C378.688 130.581 378.868 130.371 378.968 130.131C379.088 129.891 379.148 129.581 379.148 129.201V126.261C379.148 125.321 379.068 124.641 378.908 124.221C378.748 123.781 378.458 123.481 378.038 123.321C377.638 123.161 376.998 123.061 376.118 123.021V122.421C377.358 122.481 379.068 122.511 381.248 122.511C383.028 122.511 384.368 122.481 385.268 122.421V123.021C384.868 123.061 384.578 123.141 384.398 123.261C384.218 123.381 384.088 123.611 384.008 123.951C383.948 124.291 383.918 124.841 383.918 125.601V131.541H383.318C383.298 131.121 383.208 130.731 383.048 130.371C382.908 130.011 382.708 129.831 382.448 129.831C382.108 129.831 381.568 130.041 380.828 130.461C379.088 131.461 377.448 131.961 375.908 131.961C372.448 131.961 369.798 131.021 367.958 129.141C366.118 127.241 365.198 124.581 365.198 121.161C365.198 118.921 365.658 116.951 366.578 115.251C367.518 113.551 368.808 112.231 370.448 111.291C372.088 110.351 373.958 109.881 376.058 109.881ZM396.439 110.901C395.719 110.941 395.189 111.021 394.849 111.141C394.529 111.261 394.309 111.491 394.189 111.831C394.069 112.171 394.009 112.721 394.009 113.481V128.721C394.009 129.361 394.059 129.831 394.159 130.131C394.259 130.411 394.429 130.601 394.669 130.701C394.929 130.801 395.339 130.851 395.899 130.851H397.369C398.729 130.851 399.899 130.241 400.879 129.021C401.879 127.801 402.529 126.181 402.829 124.161H403.519C403.459 124.841 403.429 125.721 403.429 126.801C403.429 128.721 403.499 130.301 403.639 131.541C402.279 131.481 399.989 131.451 396.769 131.451C392.409 131.451 389.149 131.481 386.989 131.541V130.941C387.649 130.901 388.129 130.821 388.429 130.701C388.749 130.581 388.959 130.351 389.059 130.011C389.179 129.671 389.239 129.121 389.239 128.361V113.481C389.239 112.721 389.179 112.171 389.059 111.831C388.959 111.491 388.749 111.261 388.429 111.141C388.129 111.021 387.649 110.941 386.989 110.901V110.301C388.009 110.361 389.589 110.391 391.729 110.391C393.769 110.391 395.339 110.361 396.439 110.301V110.901Z" fill="#F3F9F9"/>
<rect x="180.332" y="164.5" width="209" height="53" rx="26.5" stroke="#F3F9F9"/>
<path d="M252.65 181.34C253.85 181.34 254.87 181.51 255.71 181.85C256.55 182.19 257.37 182.67 258.17 183.29C258.39 183.47 258.58 183.56 258.74 183.56C259.14 183.56 259.4 182.96 259.52 181.76H260.21C260.13 183.12 260.09 185.54 260.09 189.02H259.4C259.22 187.54 258.98 186.41 258.68 185.63C258.38 184.85 257.87 184.17 257.15 183.59C256.65 183.11 256.07 182.75 255.41 182.51C254.75 182.25 254.06 182.12 253.34 182.12C251.32 182.12 249.82 183.11 248.84 185.09C247.86 187.05 247.37 189.5 247.37 192.44C247.37 195.36 247.88 197.8 248.9 199.76C249.92 201.72 251.44 202.7 253.46 202.7C254.14 202.7 254.81 202.58 255.47 202.34C256.15 202.08 256.72 201.71 257.18 201.23C257.92 200.67 258.43 199.97 258.71 199.13C259.01 198.29 259.24 197.06 259.4 195.44H260.09C260.09 199.06 260.13 201.58 260.21 203H259.52C259.46 202.36 259.37 201.91 259.25 201.65C259.15 201.37 259 201.23 258.8 201.23C258.64 201.23 258.43 201.31 258.17 201.47C257.27 202.11 256.41 202.6 255.59 202.94C254.77 203.26 253.78 203.42 252.62 203.42C250.5 203.42 248.64 202.99 247.04 202.13C245.46 201.27 244.23 200.03 243.35 198.41C242.47 196.77 242.03 194.82 242.03 192.56C242.03 190.36 242.48 188.41 243.38 186.71C244.28 185.01 245.53 183.69 247.13 182.75C248.75 181.81 250.59 181.34 252.65 181.34ZM270.353 187.07C272.653 187.07 274.453 187.73 275.753 189.05C277.053 190.35 277.703 192.42 277.703 195.26C277.703 198.1 277.053 200.17 275.753 201.47C274.453 202.77 272.653 203.42 270.353 203.42C268.073 203.42 266.273 202.77 264.953 201.47C263.653 200.17 263.003 198.1 263.003 195.26C263.003 192.42 263.653 190.35 264.953 189.05C266.273 187.73 268.073 187.07 270.353 187.07ZM270.353 187.67C269.493 187.67 268.803 188.3 268.283 189.56C267.783 190.8 267.533 192.7 267.533 195.26C267.533 197.82 267.783 199.72 268.283 200.96C268.803 202.2 269.493 202.82 270.353 202.82C271.233 202.82 271.923 202.21 272.423 200.99C272.923 199.75 273.173 197.84 273.173 195.26C273.173 192.68 272.913 190.77 272.393 189.53C271.893 188.29 271.213 187.67 270.353 187.67ZM300.545 180.53C300.845 180.77 301.085 181.09 301.265 181.49C301.465 181.87 301.565 182.3 301.565 182.78C301.565 183.34 301.365 183.83 300.965 184.25C300.565 184.65 300.055 184.85 299.435 184.85C298.755 184.85 298.205 184.66 297.785 184.28C297.365 183.9 297.155 183.38 297.155 182.72C297.155 182.2 297.305 181.74 297.605 181.34C297.905 180.94 298.345 180.66 298.925 180.5C298.865 180.38 298.735 180.28 298.535 180.2C298.355 180.12 298.125 180.08 297.845 180.08C297.085 180.08 296.545 180.34 296.225 180.86C296.005 181.16 295.855 181.6 295.775 182.18C295.695 182.76 295.655 183.63 295.655 184.79V187.52H298.865V188.12H295.655V199.91C295.655 200.83 295.885 201.47 296.345 201.83C296.825 202.19 297.535 202.37 298.475 202.37V203L297.635 202.97C295.415 202.91 293.975 202.88 293.315 202.88C292.715 202.88 291.415 202.92 289.415 203V202.37C290.135 202.37 290.635 202.22 290.915 201.92C291.195 201.6 291.335 201.03 291.335 200.21V188.12H285.905V200.21C285.905 201.03 286.045 201.6 286.325 201.92C286.605 202.22 287.105 202.37 287.825 202.37V203L287.165 202.97C285.425 202.91 284.325 202.88 283.865 202.88C283.185 202.88 281.725 202.92 279.485 203V202.37C280.265 202.37 280.805 202.22 281.105 201.92C281.425 201.6 281.585 201.03 281.585 200.21V188.12H279.365V187.52H281.585C281.585 186.44 281.745 185.46 282.065 184.58C282.405 183.7 282.885 182.98 283.505 182.42C284.085 181.9 284.795 181.49 285.635 181.19C286.475 180.89 287.395 180.74 288.395 180.74C289.195 180.74 289.925 180.87 290.585 181.13C291.265 181.39 291.825 181.77 292.265 182.27C292.525 181.81 292.845 181.4 293.225 181.04C293.665 180.6 294.255 180.24 294.995 179.96C295.735 179.68 296.515 179.54 297.335 179.54C298.575 179.54 299.645 179.87 300.545 180.53ZM291.335 187.52C291.335 186.44 291.385 185.53 291.485 184.79C291.585 184.05 291.745 183.4 291.965 182.84C291.625 182.4 291.185 182.05 290.645 181.79C290.125 181.53 289.535 181.4 288.875 181.4C287.855 181.4 287.105 181.72 286.625 182.36C286.145 182.98 285.905 183.98 285.905 185.36V187.52H291.335ZM308.229 200.96C309.869 200.96 311.189 200.16 312.189 198.56L312.729 198.74C312.329 200.04 311.609 201.15 310.569 202.07C309.549 202.97 308.269 203.42 306.729 203.42C304.609 203.42 302.919 202.75 301.659 201.41C300.419 200.05 299.799 198.05 299.799 195.41C299.799 192.71 300.469 190.65 301.809 189.23C303.149 187.79 304.929 187.07 307.149 187.07C310.909 187.07 312.789 189.29 312.789 193.73H304.359C304.339 194.03 304.329 194.5 304.329 195.14C304.329 196.46 304.509 197.56 304.869 198.44C305.249 199.32 305.729 199.96 306.309 200.36C306.909 200.76 307.549 200.96 308.229 200.96ZM306.969 187.7C306.249 187.7 305.649 188.15 305.169 189.05C304.709 189.93 304.419 191.3 304.299 193.16H309.009C309.049 191.58 308.889 190.28 308.529 189.26C308.189 188.22 307.669 187.7 306.969 187.7ZM323.347 200.96C324.987 200.96 326.307 200.16 327.307 198.56L327.847 198.74C327.447 200.04 326.727 201.15 325.687 202.07C324.667 202.97 323.387 203.42 321.847 203.42C319.727 203.42 318.037 202.75 316.777 201.41C315.537 200.05 314.917 198.05 314.917 195.41C314.917 192.71 315.587 190.65 316.927 189.23C318.267 187.79 320.047 187.07 322.267 187.07C326.027 187.07 327.907 189.29 327.907 193.73H319.477C319.457 194.03 319.447 194.5 319.447 195.14C319.447 196.46 319.627 197.56 319.987 198.44C320.367 199.32 320.847 199.96 321.427 200.36C322.027 200.76 322.667 200.96 323.347 200.96ZM322.087 187.7C321.367 187.7 320.767 188.15 320.287 189.05C319.827 189.93 319.537 191.3 319.417 193.16H324.127C324.167 191.58 324.007 190.28 323.647 189.26C323.307 188.22 322.787 187.7 322.087 187.7Z" fill="#F3F9F9"/>
<rect x="409.832" y="184" width="113" height="112" rx="56" fill="white"/>
<path d="M458.289 230.85C459.209 230.85 459.969 230.82 460.569 230.76V231.36C460.069 231.54 459.579 231.92 459.099 232.5C458.619 233.08 458.189 233.89 457.809 234.93L451.479 252.06C451.259 252.04 450.909 252.03 450.429 252.03C449.969 252.03 449.629 252.04 449.409 252.06L441.759 233.28C441.499 232.62 441.199 232.14 440.859 231.84C440.519 231.54 440.189 231.38 439.869 231.36V230.76C441.069 230.82 442.589 230.85 444.429 230.85C446.489 230.85 448.009 230.82 448.989 230.76V231.36C448.229 231.4 447.689 231.49 447.369 231.63C447.049 231.77 446.889 232.05 446.889 232.47C446.889 232.81 447.009 233.28 447.249 233.88L452.529 247.32L456.219 237.36C456.779 235.82 457.059 234.6 457.059 233.7C457.059 232.9 456.839 232.32 456.399 231.96C455.979 231.6 455.359 231.4 454.539 231.36V230.76C455.899 230.82 457.149 230.85 458.289 230.85ZM474.785 248.73C474.785 249.65 474.925 250.32 475.205 250.74C475.505 251.16 476.005 251.37 476.705 251.37V252C476.085 251.94 475.465 251.91 474.845 251.91C473.105 251.91 471.645 252.05 470.465 252.33V249.63C469.545 251.49 467.935 252.42 465.635 252.42C464.135 252.42 463.045 252.03 462.365 251.25C462.045 250.87 461.805 250.38 461.645 249.78C461.505 249.16 461.435 248.35 461.435 247.35V239.76C461.435 238.84 461.285 238.17 460.985 237.75C460.705 237.33 460.215 237.12 459.515 237.12V236.49C460.135 236.55 460.755 236.58 461.375 236.58C463.115 236.58 464.575 236.44 465.755 236.16V248.58C465.755 249.42 465.875 250.05 466.115 250.47C466.375 250.89 466.855 251.1 467.555 251.1C468.355 251.1 469.035 250.77 469.595 250.11C470.175 249.43 470.465 248.6 470.465 247.62V239.76C470.465 238.84 470.315 238.17 470.015 237.75C469.735 237.33 469.245 237.12 468.545 237.12V236.49C469.185 236.55 469.805 236.58 470.405 236.58C472.145 236.58 473.605 236.44 474.785 236.16V248.73ZM486.858 249.96C488.498 249.96 489.818 249.16 490.818 247.56L491.358 247.74C490.958 249.04 490.238 250.15 489.198 251.07C488.178 251.97 486.898 252.42 485.358 252.42C483.238 252.42 481.548 251.75 480.288 250.41C479.048 249.05 478.428 247.05 478.428 244.41C478.428 241.71 479.098 239.65 480.438 238.23C481.778 236.79 483.558 236.07 485.778 236.07C489.538 236.07 491.418 238.29 491.418 242.73H482.988C482.968 243.03 482.958 243.5 482.958 244.14C482.958 245.46 483.138 246.56 483.498 247.44C483.878 248.32 484.358 248.96 484.938 249.36C485.538 249.76 486.178 249.96 486.858 249.96ZM485.598 236.7C484.878 236.7 484.278 237.15 483.798 238.05C483.338 238.93 483.048 240.3 482.928 242.16H487.638C487.678 240.58 487.518 239.28 487.158 238.26C486.818 237.22 486.298 236.7 485.598 236.7Z" fill="#83C5BE"/>
<rect x="104.799" y="237.446" width="289" height="53" rx="26.5" stroke="#F3F9F9"/>
<path d="M152.938 254.316C153.978 254.316 154.808 254.416 155.428 254.616C156.048 254.816 156.678 255.106 157.318 255.486C157.538 255.606 157.728 255.706 157.888 255.786C158.068 255.866 158.218 255.906 158.338 255.906C158.518 255.906 158.658 255.806 158.758 255.606C158.858 255.386 158.938 255.046 158.998 254.586H159.688C159.588 255.926 159.538 258.206 159.538 261.426H158.848C158.768 260.346 158.518 259.316 158.098 258.336C157.698 257.356 157.118 256.566 156.358 255.966C155.618 255.346 154.748 255.036 153.748 255.036C152.768 255.036 151.968 255.316 151.348 255.876C150.748 256.416 150.448 257.156 150.448 258.096C150.448 258.796 150.598 259.406 150.898 259.926C151.198 260.446 151.618 260.926 152.158 261.366C152.698 261.786 153.528 262.366 154.648 263.106L155.608 263.766C156.788 264.546 157.718 265.226 158.398 265.806C159.078 266.386 159.628 267.066 160.048 267.846C160.488 268.606 160.708 269.496 160.708 270.516C160.708 271.796 160.378 272.876 159.718 273.756C159.058 274.616 158.158 275.266 157.018 275.706C155.898 276.146 154.648 276.366 153.268 276.366C152.148 276.366 151.218 276.266 150.478 276.066C149.738 275.866 149.058 275.596 148.438 275.256C147.998 274.976 147.658 274.836 147.418 274.836C147.238 274.836 147.098 274.946 146.998 275.166C146.898 275.366 146.818 275.696 146.758 276.156H146.068C146.148 274.896 146.188 272.196 146.188 268.056H146.878C147.018 270.296 147.518 272.116 148.378 273.516C149.238 274.896 150.558 275.586 152.338 275.586C153.418 275.586 154.308 275.296 155.008 274.716C155.708 274.136 156.058 273.306 156.058 272.226C156.058 271.106 155.698 270.146 154.978 269.346C154.258 268.546 153.118 267.646 151.558 266.646C150.358 265.866 149.398 265.186 148.678 264.606C147.958 264.026 147.368 263.346 146.908 262.566C146.448 261.766 146.218 260.846 146.218 259.806C146.218 258.606 146.518 257.596 147.118 256.776C147.738 255.936 148.558 255.316 149.578 254.916C150.598 254.516 151.718 254.316 152.938 254.316ZM166.618 276.156C165.338 276.156 164.378 275.826 163.738 275.166C163.118 274.506 162.808 273.636 162.808 272.556C162.808 271.656 163.038 270.916 163.498 270.336C163.978 269.736 164.548 269.276 165.208 268.956C165.888 268.636 166.748 268.296 167.788 267.936C168.888 267.556 169.688 267.216 170.188 266.916C170.708 266.596 170.968 266.166 170.968 265.626V263.286C170.968 262.446 170.768 261.796 170.368 261.336C169.988 260.856 169.388 260.616 168.568 260.616C167.608 260.616 166.878 260.856 166.378 261.336C166.938 261.536 167.368 261.836 167.668 262.236C167.988 262.636 168.148 263.106 168.148 263.646C168.148 264.326 167.918 264.866 167.458 265.266C166.998 265.666 166.438 265.866 165.778 265.866C165.078 265.866 164.538 265.646 164.158 265.206C163.778 264.766 163.588 264.216 163.588 263.556C163.588 262.996 163.718 262.526 163.978 262.146C164.258 261.746 164.678 261.376 165.238 261.036C165.778 260.716 166.438 260.466 167.218 260.286C168.018 260.106 168.888 260.016 169.828 260.016C170.808 260.016 171.658 260.116 172.378 260.316C173.098 260.516 173.698 260.856 174.178 261.336C174.618 261.776 174.908 262.316 175.048 262.956C175.208 263.596 175.288 264.466 175.288 265.566V273.726C175.288 274.206 175.328 274.546 175.408 274.746C175.508 274.946 175.688 275.046 175.948 275.046C176.248 275.046 176.608 274.876 177.028 274.536L177.328 275.046C176.428 275.786 175.328 276.156 174.028 276.156C172.928 276.156 172.158 275.936 171.718 275.496C171.278 275.056 171.048 274.466 171.028 273.726C170.028 275.346 168.558 276.156 166.618 276.156ZM168.928 274.236C169.708 274.236 170.388 273.826 170.968 273.006V266.856C170.728 267.256 170.218 267.696 169.438 268.176C168.658 268.676 168.068 269.176 167.668 269.676C167.268 270.176 167.068 270.896 167.068 271.836C167.068 272.656 167.238 273.266 167.578 273.666C167.918 274.046 168.368 274.236 168.928 274.236ZM184.125 260.016C184.885 260.016 185.585 260.116 186.225 260.316C186.865 260.496 187.355 260.706 187.695 260.946C187.895 261.086 188.075 261.156 188.235 261.156C188.415 261.156 188.565 261.066 188.685 260.886C188.825 260.686 188.915 260.406 188.955 260.046H189.585C189.505 261.066 189.465 262.826 189.465 265.326H188.835C188.655 264.006 188.255 262.906 187.635 262.026C187.035 261.126 186.155 260.676 184.995 260.676C184.395 260.676 183.895 260.846 183.495 261.186C183.115 261.526 182.925 261.996 182.925 262.596C182.925 263.276 183.155 263.866 183.615 264.366C184.075 264.846 184.795 265.436 185.775 266.136L186.645 266.766C187.865 267.686 188.765 268.506 189.345 269.226C189.925 269.946 190.215 270.846 190.215 271.926C190.215 272.806 189.955 273.586 189.435 274.266C188.935 274.946 188.255 275.466 187.395 275.826C186.535 276.186 185.585 276.366 184.545 276.366C183.445 276.366 182.505 276.156 181.725 275.736C181.085 275.416 180.625 275.206 180.345 275.106C180.145 275.046 179.965 275.116 179.805 275.316C179.665 275.496 179.555 275.776 179.475 276.156H178.845C178.925 275.016 178.965 273.016 178.965 270.156H179.595C179.995 273.836 181.345 275.676 183.645 275.676C184.225 275.676 184.715 275.506 185.115 275.166C185.535 274.806 185.745 274.266 185.745 273.546C185.745 272.986 185.615 272.486 185.355 272.046C185.115 271.606 184.805 271.216 184.425 270.876C184.045 270.536 183.475 270.066 182.715 269.466C181.815 268.746 181.125 268.166 180.645 267.726C180.185 267.286 179.785 266.766 179.445 266.166C179.125 265.566 178.965 264.896 178.965 264.156C178.965 262.876 179.465 261.866 180.465 261.126C181.465 260.386 182.685 260.016 184.125 260.016ZM197.982 260.016C198.742 260.016 199.442 260.116 200.082 260.316C200.722 260.496 201.212 260.706 201.552 260.946C201.752 261.086 201.932 261.156 202.092 261.156C202.272 261.156 202.422 261.066 202.542 260.886C202.682 260.686 202.772 260.406 202.812 260.046H203.442C203.362 261.066 203.322 262.826 203.322 265.326H202.692C202.512 264.006 202.112 262.906 201.492 262.026C200.892 261.126 200.012 260.676 198.852 260.676C198.252 260.676 197.752 260.846 197.352 261.186C196.972 261.526 196.782 261.996 196.782 262.596C196.782 263.276 197.012 263.866 197.472 264.366C197.932 264.846 198.652 265.436 199.632 266.136L200.502 266.766C201.722 267.686 202.622 268.506 203.202 269.226C203.782 269.946 204.072 270.846 204.072 271.926C204.072 272.806 203.812 273.586 203.292 274.266C202.792 274.946 202.112 275.466 201.252 275.826C200.392 276.186 199.442 276.366 198.402 276.366C197.302 276.366 196.362 276.156 195.582 275.736C194.942 275.416 194.482 275.206 194.202 275.106C194.002 275.046 193.822 275.116 193.662 275.316C193.522 275.496 193.412 275.776 193.332 276.156H192.702C192.782 275.016 192.822 273.016 192.822 270.156H193.452C193.852 273.836 195.202 275.676 197.502 275.676C198.082 275.676 198.572 275.506 198.972 275.166C199.392 274.806 199.602 274.266 199.602 273.546C199.602 272.986 199.472 272.486 199.212 272.046C198.972 271.606 198.662 271.216 198.282 270.876C197.902 270.536 197.332 270.066 196.572 269.466C195.672 268.746 194.982 268.166 194.502 267.726C194.042 267.286 193.642 266.766 193.302 266.166C192.982 265.566 192.822 264.896 192.822 264.156C192.822 262.876 193.322 261.866 194.322 261.126C195.322 260.386 196.542 260.016 197.982 260.016Z" fill="#F3F9F9"/>
</svg>
